<svg xmlns="http://www.w3.org/2000/svg" width="22" height="25" viewBox="0 0 22 25" fill="none">
<g clip-path="url(#clip0_4_2868)">
<path d="M21.7418 10.9001C21.7427 11.7381 21.6097 12.5708 21.3478 13.3667C20.7513 15.5737 19.4389 17.5202 17.6165 18.9006H17.6144L11.3985 24.1083L4.60949 18.4262C2.78436 16.584 1.25754 14.0879 1.11763 11.1871C0.990699 8.57699 1.86095 6.01625 3.55199 4.02395C5.24303 2.03165 7.62833 0.756858 10.2244 0.457977C12.8205 0.159097 15.433 0.858488 17.5326 2.41438C19.6321 3.97028 21.0615 6.26627 21.531 8.83695C21.5421 8.89724 21.5367 8.95949 21.5154 9.01695C21.6663 9.63333 21.7424 10.2657 21.742 10.9002L21.7418 10.9001Z" fill="#000000"/>
<path d="M11.4584 13.0377C13.6965 13.0377 15.5106 11.2236 15.5106 8.98554C15.5106 6.74761 13.6965 4.93335 11.4584 4.93335C9.22051 4.93335 7.40625 6.74747 7.40625 8.98554C7.40625 11.2235 9.22037 13.0377 11.4584 13.0377Z" fill="#ffc501"/>
</g>
<defs fill="#000000">
<clipPath id="clip0_4_2868" fill="#000000">
<rect width="21" height="24" fill="white" transform="translate(0.5 0.390625)"/>
</clipPath>
</defs>
</svg>