<svg width="250" height="561" viewBox="0 0 250 561" fill="none" xmlns="http://www.w3.org/2000/svg">
<g clip-path="url(#clip0_4_2828)">
<path d="M208.044 3.92214V22.0423C202.833 22.7141 192.466 23.1771 180.528 23.1771C167.755 23.1771 156.779 22.6505 151.995 21.9061V3.92214C151.995 3.04155 152.322 2.22451 152.867 1.61627C158.141 2.94169 168.1 3.84044 179.529 3.84044C191.54 3.84044 201.944 2.85091 206.964 1.40747C207.627 2.03387 208.035 2.94169 208.035 3.93122H208.044V3.92214Z" fill="#FFC501"/>
<path d="M211.803 42.7496C211.803 43.1127 210.323 43.7482 208.035 44.0387C202.824 44.7105 192.457 45.1735 180.519 45.1735C167.746 45.1735 156.77 44.6469 151.986 43.9025C150.334 43.6483 148.936 43.5031 148.872 42.9039C148.845 42.6043 148.999 42.1141 150.289 41.9325V21.6154C155.073 22.3689 167.746 23.1769 180.51 23.1769C192.448 23.1769 204.34 22.1964 209.551 21.5247V41.5603C211.993 41.8145 211.785 42.3955 211.785 42.7496H211.803Z" fill="#ED5E3B"/>
<path d="M208.044 44.0388V117.355H152.004V43.9026C156.789 44.6561 167.764 45.1735 180.537 45.1735C192.475 45.1735 202.833 44.7196 208.053 44.0388H208.044Z" fill="#FF884D"/>
<path d="M249.514 216.489V534.935C249.514 541.118 240.853 560.391 181.554 560.391C117.797 560.391 112.968 541.108 112.968 534.917V216.489C112.968 201.129 119.277 187.239 129.445 177.28C135.3 170.626 151.033 151.834 152.031 140.504H207.999C208.879 151.162 224.412 168.447 231.62 175.937C242.623 185.977 249.523 200.43 249.523 216.498H249.514V216.489Z" fill="#FF884D"/>
<path d="M206.973 1.39831C201.953 2.84175 191.549 3.83128 179.539 3.83128C167.528 3.83128 158.141 2.93253 152.876 1.60711C153.521 0.853615 154.474 0.390625 155.536 0.390625H204.513C205.475 0.390625 206.347 0.762833 206.973 1.39831Z" fill="#ED5E3B"/>
<path d="M137.833 250.396V379.652H137.361C131.597 378.381 125.941 376.756 120.485 374.713V247.927C124.688 248.662 130.553 249.57 137.833 250.396Z" fill="#FFC501"/>
<path d="M120.485 247.927V374.713C117.916 373.76 115.401 372.707 112.932 371.563V246.447C112.932 246.447 115.573 247.073 120.485 247.927Z" fill="#FEDC67"/>
<path d="M249.514 247.137V374.06C249.514 374.06 189.271 391.145 137.361 379.652H137.833V250.396C162.172 253.183 202.38 255.144 249.514 247.137Z" fill="#FEDC67"/>
<path d="M208.044 111.299V140.495C208.044 140.495 199.293 144.308 181.763 144.308C160.574 144.308 151.995 140.495 151.995 140.495V111.299C151.995 111.299 164.305 114.422 180.283 114.422C194.327 114.422 208.044 111.299 208.044 111.299Z" fill="#ED5E3B"/>
<path d="M121.647 549.478L125.695 543.85C130.307 539.892 132.931 534.1 132.867 528.027L130.97 363.611C130.879 355.413 127.92 347.497 122.6 341.251L112.478 329.34L114.093 541.934L121.647 549.488V549.478Z" fill="#FFC501"/>
<path d="M123.208 532.711C123.208 532.711 121.329 538.185 109.418 542.87C100.485 546.392 85.9148 549.479 62.257 549.479C38.5991 549.479 24.2282 546.465 15.1228 542.997C2.75822 538.276 0.615756 532.72 0.615756 532.72L0.461426 364.319C0.461426 348.523 10.0027 344.592 13.298 337.175C19.0536 339.835 37.083 343.167 62.0845 343.167C85.2612 343.167 104.87 340.77 111.361 337.466C113.358 344.183 123.063 350.801 123.063 364.292L123.217 532.72H123.208V532.711Z" fill="#FFC501"/>
<path d="M109.418 542.87C108.928 551.267 88.0117 558.021 62.2749 558.021C36.5381 558.021 15.8034 551.322 15.1226 542.988C24.228 546.456 38.8621 549.47 62.2568 549.47C85.6514 549.47 100.485 546.392 109.418 542.861V542.87Z" fill="#E5AA03"/>
<path d="M113.631 335.078C113.631 335.913 112.832 336.712 111.352 337.466C104.87 340.761 85.2613 343.167 62.0755 343.167C37.065 343.167 16.2213 340.371 11.5188 336.658C10.8652 336.158 10.5293 335.623 10.5293 335.087C10.5293 334.125 11.6005 333.199 13.5705 332.355C21.0873 335.35 39.7431 337.484 61.5581 337.484C83.3731 337.484 102.918 335.26 110.072 332.128C112.36 333.054 113.622 334.043 113.622 335.087H113.631V335.078Z" fill="#FFDC67"/>
<path d="M122.455 358.654C122.455 358.654 122.391 358.691 122.355 358.709C114.421 362.739 90.436 365.672 62.0847 365.672C33.7334 365.672 7.98751 362.512 1.00635 358.237C1.41487 356.058 2.04127 354.16 2.79476 352.463C5.83597 345.709 11.0378 342.259 13.2892 337.166C19.0448 339.826 37.0742 343.158 62.0847 343.158C85.2614 343.158 104.87 340.761 111.361 337.457C112.66 341.832 117.235 346.172 120.258 352.39C121.184 354.288 121.965 356.357 122.455 358.663V358.654Z" fill="#FFD134"/>
<path d="M110.081 332.109C107.766 333.126 104.199 334.043 99.6685 334.815C90.2271 333.144 76.4191 332.082 61.0406 332.082C45.6621 332.082 32.3534 333.099 22.9302 334.724C18.9902 334.025 15.7947 333.217 13.5796 332.336C20.7332 329.213 39.7612 326.98 62.0846 326.98C84.408 326.98 102.564 329.114 110.081 332.109Z" fill="#FFD134"/>
<path d="M99.6685 334.815C90.2453 336.44 76.6642 337.466 61.5671 337.466C46.47 337.466 32.3715 336.413 22.9302 334.733C32.3534 333.117 45.9435 332.091 61.0406 332.091C76.1377 332.091 90.2271 333.144 99.6685 334.824V334.815Z" fill="#FFC501"/>
<path d="M62.0664 447.875C62.0664 486.231 42.875 517.314 19.199 517.314C12.5356 517.314 6.22621 514.854 0.597708 510.46L0.48877 385.38C6.14451 380.923 12.4902 378.417 19.2081 378.417C42.8841 378.417 62.0755 409.51 62.0755 447.866H62.0664V447.875Z" fill="#ED5E3B"/>
<path opacity="0.8" d="M97.1539 404.318C89.9004 404.753 95.3927 390.255 97.1539 389.883C98.6609 389.565 103.963 403.909 97.1539 404.318Z" fill="#CEC095"/>
<path opacity="0.8" d="M97.7442 403.038C90.4362 403.482 95.974 388.866 97.7442 388.485C99.2603 388.158 104.607 402.62 97.7442 403.038Z" fill="#FEF9E5"/>
<path opacity="0.8" d="M60.5504 521.091C53.2969 521.527 58.7892 507.029 60.5504 506.657C62.0574 506.339 67.3591 520.682 60.5504 521.091Z" fill="#CEC095"/>
<path opacity="0.8" d="M61.1407 519.82C53.8327 520.265 59.3704 505.649 61.1407 505.268C62.6568 504.941 68.0038 519.402 61.1407 519.82Z" fill="#FEF9E5"/>
<path opacity="0.8" d="M97.1902 386.37C96.9633 386.552 96.6365 386.443 96.5729 386.161C96.2552 384.745 94.5666 381.776 97.3718 376.057C97.3718 376.057 96.8634 378.663 98.0345 381.595C99.1693 384.427 97.8439 385.862 97.1902 386.379V386.37Z" fill="#CEC095"/>
<path opacity="0.8" d="M97.1902 385.426C96.9633 385.607 96.6365 385.499 96.5729 385.217C96.2552 383.801 94.5666 380.832 97.3718 375.113C97.3718 375.113 96.8634 377.718 98.0345 380.651C99.1693 383.483 97.8439 384.918 97.1902 385.435V385.426Z" fill="#FEF9E5"/>
<path opacity="0.8" d="M60.3416 501.645C60.1147 501.827 59.7878 501.718 59.7243 501.437C59.4066 500.02 57.718 497.052 60.5232 491.333C60.5232 491.333 60.0148 493.938 61.1859 496.87C62.3207 499.703 60.9952 501.137 60.3416 501.654V501.645Z" fill="#CEC095"/>
<path opacity="0.8" d="M60.3416 500.701C60.1147 500.883 59.7878 500.774 59.7243 500.493C59.4066 499.076 57.718 496.108 60.5232 490.388C60.5232 490.388 60.0148 492.994 61.1859 495.926C62.3207 498.759 60.9952 500.193 60.3416 500.71V500.701Z" fill="#FEF9E5"/>
</g>
<defs>
<clipPath id="clip0_4_2828">
<rect width="249.061" height="560" fill="white" transform="translate(0.461426 0.390625)"/>
</clipPath>
</defs>
</svg>
