<svg width="25" height="25" viewBox="0 0 25 25" fill="none" xmlns="http://www.w3.org/2000/svg">
<g clip-path="url(#clip0_4_3513)">
<path d="M11.3146 4.26902L11.7778 5.57062C11.8469 5.76459 11.9558 5.94191 12.0977 6.09115C12.2395 6.24038 12.4111 6.35819 12.6013 6.43698C12.7915 6.51577 12.9962 6.55377 13.202 6.54854C13.4078 6.54331 13.6102 6.49496 13.7962 6.40662L15.0442 5.81382C16.2946 5.21942 17.5994 6.52422 17.005 7.77462L16.4122 9.02262C16.3236 9.20855 16.2751 9.41102 16.2697 9.61692C16.2643 9.82281 16.3023 10.0275 16.3811 10.2178C16.4599 10.4081 16.5779 10.5797 16.7272 10.7215C16.8766 10.8633 17.0541 10.9722 17.2482 11.041L18.5498 11.5034C19.8538 11.9674 19.8538 13.8122 18.5498 14.277L17.2482 14.7402C17.0542 14.8093 16.8769 14.9182 16.7277 15.0601C16.5785 15.2019 16.4606 15.3735 16.3819 15.5637C16.3031 15.7539 16.2651 15.9586 16.2703 16.1644C16.2755 16.3702 16.3239 16.5726 16.4122 16.7586L17.005 18.0066C17.5994 19.257 16.2946 20.5618 15.0442 19.9674L13.7962 19.3746C13.6103 19.2861 13.4079 19.2376 13.2021 19.2323C12.9963 19.2269 12.7916 19.2649 12.6014 19.3436C12.4111 19.4223 12.2395 19.5401 12.0977 19.6893C11.9558 19.8385 11.8468 20.0158 11.7778 20.2098L11.3146 21.5122C10.8506 22.8162 9.00581 22.8162 8.54181 21.5122L8.07861 20.2098C8.00949 20.0159 7.90047 19.8387 7.75859 19.6895C7.6167 19.5404 7.44512 19.4227 7.2549 19.3439C7.06469 19.2652 6.86009 19.2273 6.65431 19.2326C6.44852 19.2379 6.24613 19.2863 6.06021 19.3746L4.81221 19.9666C3.56181 20.5618 2.25701 19.257 2.85141 18.0066L3.44421 16.7586C3.53283 16.5726 3.5814 16.37 3.58677 16.164C3.59214 15.958 3.55419 15.7531 3.47539 15.5627C3.39658 15.3723 3.27867 15.2006 3.12929 15.0586C2.97991 14.9166 2.80239 14.8076 2.60821 14.7386L1.30661 14.2762C0.00261322 13.8122 0.00261322 11.9666 1.30661 11.5026L2.60821 11.0402C2.80239 10.9714 2.97997 10.8626 3.12947 10.7209C3.27896 10.5792 3.39703 10.4076 3.47606 10.2174C3.55508 10.0271 3.59329 9.82241 3.58822 9.61647C3.58315 9.41053 3.53491 9.20794 3.44661 9.02182L2.85301 7.77382C2.25861 6.52262 3.56341 5.21782 4.81461 5.81222L6.06261 6.40582C6.2485 6.49404 6.45081 6.54232 6.6565 6.54754C6.8622 6.55275 7.0667 6.51478 7.25681 6.43608C7.44692 6.35738 7.61843 6.2397 7.76025 6.09063C7.90208 5.94156 8.01108 5.76441 8.08021 5.57062L8.54261 4.26902C9.00501 2.96502 10.8498 2.96502 11.3138 4.26902H11.3146Z" fill="#FFB3CE"/>
</g>
<defs>
<clipPath id="clip0_4_3513">
<rect width="24" height="24" fill="white" transform="translate(0.328125 0.890625)"/>
</clipPath>
</defs>
</svg>
