<svg width="16" height="17" viewBox="0 0 16 17" fill="none" xmlns="http://www.w3.org/2000/svg">
<g clip-path="url(#clip0_4_2893)">
<path d="M9.04697 14.3L8.35322 14.9937C8.05947 15.2875 7.58447 15.2875 7.29385 14.9937L1.21885 8.92183C0.925098 8.62808 0.925098 8.15308 1.21885 7.86245L7.29385 1.78745C7.5876 1.4937 8.0626 1.4937 8.35322 1.78745L9.04697 2.4812C9.34385 2.77808 9.3376 3.26245 9.03447 3.55308L5.26885 7.14058H14.2501C14.6657 7.14058 15.0001 7.47495 15.0001 7.89058V8.89058C15.0001 9.3062 14.6657 9.64058 14.2501 9.64058H5.26885L9.03447 13.2281C9.34072 13.5187 9.34697 14.0031 9.04697 14.3Z" fill="#FFC501"/>
</g>
<defs>
<clipPath id="clip0_4_2893">
<rect width="16" height="16" fill="white" transform="translate(0 0.390625)"/>
</clipPath>
</defs>
</svg>
