<svg width="16" height="17" viewBox="0 0 16 17" fill="none" xmlns="http://www.w3.org/2000/svg">
<path d="M6.95312 2.4812L7.64687 1.78745C7.94062 1.4937 8.41563 1.4937 8.70625 1.78745L14.7812 7.85933C15.075 8.15308 15.075 8.62808 14.7812 8.9187L8.70625 14.9937C8.4125 15.2875 7.9375 15.2875 7.64687 14.9937L6.95312 14.3C6.65625 14.0031 6.6625 13.5187 6.96562 13.2281L10.7312 9.64058H1.75C1.33437 9.64058 1 9.3062 1 8.89058V7.89058C1 7.47495 1.33437 7.14058 1.75 7.14058H10.7312L6.96562 3.55308C6.65937 3.26245 6.65312 2.77808 6.95312 2.4812Z" fill="#FFC501"/>
</svg>
