<svg width="17" height="17" viewBox="0 0 17 17" fill="none" xmlns="http://www.w3.org/2000/svg">
<g clip-path="url(#clip0_4_3091)">
<path d="M14.7657 4.36407C14.2876 4.57032 13.7673 4.71876 13.2313 4.77657C13.7878 4.446 14.2045 3.92376 14.4032 3.30782C13.8811 3.61843 13.3091 3.83623 12.7126 3.95157C12.4633 3.68505 12.1618 3.47272 11.8268 3.32783C11.4919 3.18294 11.1307 3.10858 10.7657 3.10938C9.28916 3.10938 8.10166 4.30626 8.10166 5.77501C8.10166 5.98126 8.12666 6.18751 8.16729 6.38594C5.95635 6.27032 3.98447 5.21407 2.67354 3.59688C2.43467 4.00487 2.30949 4.46942 2.31104 4.94219C2.31104 5.86719 2.78135 6.68282 3.49854 7.16251C3.07589 7.14586 2.66313 7.02969 2.29385 6.82344V6.85626C2.29385 8.15157 3.20947 9.22501 4.42979 9.47188C4.20066 9.5314 3.96495 9.56185 3.72822 9.56251C3.55479 9.56251 3.39072 9.54532 3.2251 9.52188C3.5626 10.5781 4.54541 11.3453 5.71572 11.3703C4.8001 12.0875 3.65322 12.5094 2.40791 12.5094C2.18447 12.5094 1.97822 12.5016 1.76416 12.4766C2.94541 13.2344 4.34697 13.6719 5.85635 13.6719C10.7563 13.6719 13.4376 9.61251 13.4376 6.08907C13.4376 5.97344 13.4376 5.85782 13.4298 5.74219C13.9485 5.36251 14.4032 4.89219 14.7657 4.36407Z" fill="white"/>
</g>
<defs>
<clipPath id="clip0_4_3091">
<rect width="16" height="16" fill="white" transform="translate(0.265625 0.390625)"/>
</clipPath>
</defs>
</svg>
