<svg width="25" height="24" viewBox="0 0 25 24" fill="none" xmlns="http://www.w3.org/2000/svg">
<g clip-path="url(#clip0_4_2584)">
<path d="M18.4234 12.5555C18.4141 10.957 19.1383 9.75234 20.6008 8.86406C19.7828 7.69219 18.5453 7.04766 16.9141 6.92344C15.3695 6.80156 13.6797 7.82344 13.0609 7.82344C12.407 7.82344 10.9117 6.96563 9.73516 6.96563C7.30703 7.00313 4.72656 8.90156 4.72656 12.7641C4.72656 13.9055 4.93516 15.0844 5.35234 16.2984C5.91016 17.8969 7.92109 21.8133 10.0187 21.75C11.1156 21.7242 11.8914 20.9719 13.3187 20.9719C14.7039 20.9719 15.4211 21.75 16.6445 21.75C18.7609 21.7195 20.5797 18.1594 21.1094 16.5563C18.2711 15.218 18.4234 12.6375 18.4234 12.5555ZM15.9602 5.40703C17.1484 3.99609 17.0406 2.71172 17.0055 2.25C15.9555 2.31094 14.7414 2.96484 14.05 3.76875C13.2883 4.63125 12.8406 5.69766 12.9367 6.9C14.0711 6.98672 15.107 6.40313 15.9602 5.40703Z" fill="white"/>
</g>
<defs>
<clipPath id="clip0_4_2584">
<rect width="24" height="24" fill="white" transform="translate(0.90625)"/>
</clipPath>
</defs>
</svg>
